<?xml version="1.0" encoding="UTF-8" standalone="no"?>
<!DOCTYPE svg PUBLIC "-//W3C//DTD SVG 1.1//EN" "http://www.w3.org/Graphics/SVG/1.1/DTD/svg11.dtd">
<svg width="100%" height="100%" viewBox="0 0 1000 1000" version="1.1" xmlns="http://www.w3.org/2000/svg" xmlns:xlink="http://www.w3.org/1999/xlink" xml:space="preserve" xmlns:serif="http://www.serif.com/" style="fill-rule:evenodd;clip-rule:evenodd;stroke-linejoin:round;stroke-miterlimit:2;">
    <path d="M1000,0L0,0L0,1000L1000,1000L1000,0ZM397.093,889.453C397.093,903.463 653.59,903.568 653.59,889.453C653.59,871.983 654.19,814.865 654.19,743.896C654.19,694.41 637.657,662.131 619.102,645.671C734.295,632.54 855.314,587.692 855.314,383.962C855.314,326.063 835.243,278.738 802.073,241.593C807.445,228.234 825.16,174.286 797.002,101.226C797.002,101.226 753.621,86.98 654.884,155.604C613.542,143.852 569.253,137.958 525.29,137.747C481.327,137.958 437.073,143.852 395.808,155.604C296.951,86.98 253.51,101.226 253.51,101.226C225.42,174.286 243.127,228.234 248.499,241.593C215.406,278.738 195.198,326.063 195.198,383.962C195.198,587.201 315.985,632.69 430.888,646.093C416.093,659.338 402.687,682.746 398.044,717.019C368.524,730.571 293.644,754.014 247.505,672.935C247.505,672.935 220.152,622.009 168.205,618.267C168.205,618.267 117.731,617.591 164.667,650.511C164.667,650.511 198.573,666.822 222.105,728.121C222.105,728.121 252.473,822.788 396.39,790.702C396.613,835.023 397.093,876.805 397.093,889.453Z"/>
</svg>
