<?xml version="1.0" encoding="UTF-8" standalone="no"?>
<!DOCTYPE svg PUBLIC "-//W3C//DTD SVG 1.1//EN" "http://www.w3.org/Graphics/SVG/1.1/DTD/svg11.dtd">
<svg width="100%" height="100%" viewBox="0 0 1000 1000" version="1.1" xmlns="http://www.w3.org/2000/svg" xmlns:xlink="http://www.w3.org/1999/xlink" xml:space="preserve" xmlns:serif="http://www.serif.com/" style="fill-rule:evenodd;clip-rule:evenodd;stroke-linejoin:round;stroke-miterlimit:2;">
    <path d="M500,0C775.958,0 1000,224.042 1000,500C1000,775.958 775.958,1000 500,1000C224.042,1000 0,775.958 0,500C0,224.042 224.042,0 500,0ZM409,230C409,227.348 410.054,224.804 411.929,222.929C413.804,221.054 416.348,220 419,220C450.777,220 549.223,220 581,220C583.652,220 586.196,221.054 588.071,222.929C589.946,224.804 591,227.348 591,230C591,288.133 591,580 591,580C591,580 678.212,580 709.219,580C711.166,580 712.936,581.13 713.755,582.896C714.575,584.662 714.294,586.743 713.036,588.23C680.29,626.93 541.784,790.619 507.634,830.978C505.734,833.224 502.942,834.519 500,834.519C497.058,834.519 494.266,833.224 492.366,830.978C458.216,790.619 319.71,626.93 286.964,588.23C285.706,586.743 285.425,584.662 286.245,582.896C287.064,581.13 288.834,580 290.781,580C321.788,580 409,580 409,580L409,230Z"/>
</svg>
