<?xml version="1.0" encoding="UTF-8" standalone="no"?>
<!DOCTYPE svg PUBLIC "-//W3C//DTD SVG 1.1//EN" "http://www.w3.org/Graphics/SVG/1.1/DTD/svg11.dtd">
<svg width="100%" height="100%" viewBox="0 0 500 500" version="1.1" xmlns="http://www.w3.org/2000/svg" xmlns:xlink="http://www.w3.org/1999/xlink" xml:space="preserve" xmlns:serif="http://www.serif.com/" style="fill-rule:evenodd;clip-rule:evenodd;stroke-linejoin:round;stroke-miterlimit:2;">
    <path d="M250,0C387.979,0 500,112.021 500,250C500,387.979 387.979,500 250,500C112.021,500 0,387.979 0,250C0,112.021 112.021,0 250,0ZM170.038,394.352L115.207,394.352L115.207,193.305L170.038,193.305L170.038,394.352ZM389.363,394.352L334.531,394.352L334.531,291.928C334.531,230.37 261.423,235.031 261.423,291.928L261.423,394.352L206.592,394.352L206.592,193.305L261.423,193.305L261.423,225.564C286.938,178.299 389.363,174.808 389.363,270.818L389.363,394.352ZM142.622,170.129C124.967,170.129 110.637,155.69 110.637,137.889C110.637,120.087 124.967,105.648 142.622,105.648C160.278,105.648 174.607,120.087 174.607,137.889C174.607,155.69 160.296,170.129 142.622,170.129Z"/>
</svg>
