<?xml version="1.0" encoding="UTF-8" standalone="no"?>
<!DOCTYPE svg PUBLIC "-//W3C//DTD SVG 1.1//EN" "http://www.w3.org/Graphics/SVG/1.1/DTD/svg11.dtd">
<svg width="100%" height="100%" viewBox="0 0 1000 1000" version="1.1" xmlns="http://www.w3.org/2000/svg" xmlns:xlink="http://www.w3.org/1999/xlink" xml:space="preserve" xmlns:serif="http://www.serif.com/" style="fill-rule:evenodd;clip-rule:evenodd;stroke-linejoin:round;stroke-miterlimit:2;">
    <path d="M500,0C775.958,0 1000,224.042 1000,500C1000,775.958 775.958,1000 500,1000C224.042,1000 0,775.958 0,500C0,224.042 224.042,0 500,0ZM384.928,471.994C362.996,441.664 319.761,421.755 279.476,421.755C212.908,421.755 151.005,462.648 151.005,574.869L151.005,763.009C151.005,775.761 161.348,786.026 174.099,786.026C186.859,786.026 197.202,775.684 197.202,763.009L197.202,574.869C197.179,489.583 238.335,467.872 279.476,467.872C320.616,467.872 361.757,502.07 361.757,559.788L361.757,763.009C361.757,775.761 372.1,786.026 384.851,786.026L385.051,786.026C397.802,786.026 408.146,775.761 408.146,763.009L408.146,559.788C408.146,502.07 449.286,467.872 490.427,467.872C516.546,467.872 572.701,479.473 572.701,559.788L574.262,628.042C574.262,754.159 658.914,786.026 712.784,786.026C766.653,786.026 847.349,748.818 848.995,637.232L848.995,458.672C848.995,427.956 802.668,427.956 802.668,458.672L802.668,637.232C802.668,721.884 739.718,739.915 712.784,739.915C685.85,739.915 620.437,727.225 620.437,628.042L618.898,563.522C618.898,467.862 558.871,417.907 490.427,417.907C450.141,417.907 406.861,441.664 384.928,471.994ZM743.118,357.63C743.118,340.793 729.482,327.156 712.643,327.156C695.806,327.156 682.169,340.793 682.169,357.63C682.169,374.469 695.806,388.105 712.643,388.105C729.482,388.105 743.118,374.469 743.118,357.63ZM615.378,356.342C615.378,310.169 649.385,260.148 708.187,260.148C766.989,260.148 800.881,310.169 800.881,356.342C800.881,390.973 847.163,390.973 847.163,356.342C847.163,275.539 786.228,213.974 708.187,213.974C630.146,213.974 569.228,275.539 569.228,356.342C569.235,390.973 615.378,390.973 615.378,356.342Z"/>
</svg>
