<?xml version="1.0" encoding="UTF-8" standalone="no"?>
<!DOCTYPE svg PUBLIC "-//W3C//DTD SVG 1.1//EN" "http://www.w3.org/Graphics/SVG/1.1/DTD/svg11.dtd">
<svg width="100%" height="100%" viewBox="0 0 1080 1080" version="1.1" xmlns="http://www.w3.org/2000/svg" xmlns:xlink="http://www.w3.org/1999/xlink" xml:space="preserve" xmlns:serif="http://www.serif.com/" style="fill-rule:evenodd;clip-rule:evenodd;stroke-linejoin:round;stroke-miterlimit:2;">
    <path d="M540,0C838.034,0 1080,241.966 1080,540C1080,838.034 838.034,1080 540,1080C241.966,1080 0,838.034 0,540C0,241.966 241.966,0 540,0ZM658.752,645.683C630.233,641.222 610.863,627.44 599.793,603.731L593.06,589.31L591.604,440.766L645.186,440.766L645.897,508.129C646.552,570.095 646.982,576.225 651.265,584.64C658.305,598.472 668.322,603.103 691.232,603.117C701.69,603.123 710.725,602.61 711.31,601.977C713.05,600.093 715.204,537.432 715.249,487.407L715.29,440.771L765.808,440.771L767.311,463.225C768.138,475.575 768.82,519.534 768.827,560.911L768.839,636.143L747.303,641.165C723.011,646.829 680.076,649.022 658.753,645.687L658.752,645.683ZM435.91,646.669C432.708,646.094 422.98,643.886 414.292,641.76C398.524,637.903 398.497,637.884 399.901,630.877C402.626,617.28 408.053,599.897 409.932,598.749C410.977,598.11 416.931,599.105 423.163,600.96C439.651,605.869 463.457,607.523 474.602,604.535C489.739,600.476 496.442,594.037 496.442,583.554C496.442,571.71 489.974,566.892 462.791,558.488C420.378,545.373 407.887,534.606 404.332,508.095C402.3,492.944 406.482,475.92 415.076,464.361C424.615,451.531 445.956,440.773 465.722,438.832C484.338,437.004 516.811,439.543 531.365,443.965C541.583,447.069 541.828,447.366 541.267,456.01C540.95,460.885 539.083,469.664 537.116,475.52L533.541,486.168L517.902,481.77C507.251,478.775 496.945,477.606 485.589,478.105C465.175,479.001 459.191,483.134 459.191,496.338C459.191,506.881 462.293,508.846 497.384,520.536C524.335,529.513 533.364,535.028 541.543,547.505C552.753,564.606 552.63,592.799 541.266,610.982C527.002,633.805 501.643,645.769 465.012,646.959C452.206,647.375 439.11,647.245 435.909,646.67L435.91,646.669ZM239.176,644.948C201.754,635.285 178.921,608.887 171.285,566.46C161.641,512.872 182.625,464.612 223.764,445.761C240.689,438.006 279.04,435.878 298.903,441.59C325.193,449.15 345.762,469.08 356.909,497.797C363.25,514.132 365.65,552.965 361.532,572.589C355.062,603.417 332.692,631.311 306.732,640.918C290.262,647.014 255.263,649.101 239.175,644.947L239.176,644.948ZM830.537,643.851L823.552,642.249L822.889,617.267C822.452,600.822 823.146,591.187 824.92,589.074C826.923,586.686 834.131,585.862 853.012,585.862C875.012,585.862 878.634,586.402 880.083,589.892C882.339,595.328 882.224,640.293 879.948,642.541C877.568,644.893 839.482,645.902 830.536,643.851L830.537,643.851ZM284.414,603.214C302.533,593.946 308.89,575.484 307.528,536.101C306.788,514.717 305.756,509.088 300.853,499.668C293.492,485.528 283.526,479.921 265.749,479.921C241.971,479.921 230.281,493.11 225.75,525.049C222.753,546.175 225.891,574.444 232.676,587.451C239.419,600.375 249.99,606.586 265.246,606.586C272.162,606.586 280.788,605.069 284.413,603.214L284.414,603.214ZM826.172,527.711C825.439,513.461 824.22,470.591 823.464,432.444L822.089,363.085L827.477,361.657C834.352,359.836 870.805,359.795 877.614,361.601C882.635,362.932 882.751,363.673 881.677,387.478C881.069,400.957 879.932,443.852 879.151,482.801L877.73,553.619L827.504,553.619L826.172,527.711Z"/>
</svg>
