<?xml version="1.0" encoding="UTF-8" standalone="no"?>
<!DOCTYPE svg PUBLIC "-//W3C//DTD SVG 1.1//EN" "http://www.w3.org/Graphics/SVG/1.1/DTD/svg11.dtd">
<svg width="100%" height="100%" viewBox="0 0 233 233" version="1.1" xmlns="http://www.w3.org/2000/svg" xmlns:xlink="http://www.w3.org/1999/xlink" xml:space="preserve" xmlns:serif="http://www.serif.com/" style="fill-rule:evenodd;clip-rule:evenodd;stroke-linejoin:round;stroke-miterlimit:2;">
    <path d="M0.397,108.869C4.332,48.119 54.882,0 116.575,0C180.832,0 233,52.202 233,116.5C233,180.798 180.832,233 116.575,233C64.154,233 19.779,198.258 5.211,150.552L49.144,168.68C51.366,178.61 58.178,187.32 68.228,191.51C84.671,198.38 103.63,190.55 110.47,174.1C112.25,169.8 113.08,165.29 112.96,160.79L153.75,131.64C154.08,131.65 154.42,131.66 154.75,131.66C179.16,131.66 199,111.76 199,87.322C199,62.882 179.16,43 154.75,43C130.35,43 110.5,62.882 110.5,87.322C110.5,87.518 110.5,87.714 110.51,87.898L82.002,129.31C77.384,129.1 72.75,129.91 68.356,131.72C66.419,132.51 64.604,133.48 62.901,134.6L0.397,108.869ZM103.66,171.24C98.366,183.95 83.76,189.98 71.064,184.69C65.207,182.25 60.785,177.78 58.234,172.45L72.639,178.42C82.002,182.32 92.744,177.88 96.636,168.52C100.54,159.15 96.111,148.39 86.753,144.49L71.862,138.32C77.608,136.14 84.14,136.06 90.243,138.6C96.396,141.16 101.17,145.98 103.7,152.14C106.23,158.3 106.22,165.1 103.66,171.24ZM0.151,116.008C0.161,118.218 0.218,120.832 0.37,123.699C0.224,121.318 0.15,118.918 0.15,116.5L0.151,116.008ZM154.75,116.86C138.5,116.86 125.27,103.61 125.27,87.322C125.27,71.047 138.5,57.793 154.75,57.793C171.01,57.793 184.24,71.047 184.24,87.322C184.24,103.61 171.01,116.86 154.75,116.86ZM132.66,87.277C132.66,99.531 142.58,109.46 154.8,109.46C167.03,109.46 176.95,99.531 176.95,87.277C176.95,75.024 167.03,65.086 154.8,65.086C142.58,65.086 132.66,75.024 132.66,87.277Z"/>
</svg>
