<?xml version="1.0" encoding="UTF-8" standalone="no"?>
<!DOCTYPE svg PUBLIC "-//W3C//DTD SVG 1.1//EN" "http://www.w3.org/Graphics/SVG/1.1/DTD/svg11.dtd">
<svg width="100%" height="100%" viewBox="0 0 2160 500" version="1.1" xmlns="http://www.w3.org/2000/svg" xmlns:xlink="http://www.w3.org/1999/xlink" xml:space="preserve" xmlns:serif="http://www.serif.com/" style="fill-rule:evenodd;clip-rule:evenodd;stroke-linecap:round;stroke-linejoin:round;stroke-miterlimit:1.5;">
    <path d="M-0.823,198.399C98.09,198.399 201.77,298.504 301.874,298.504C401.979,298.504 498.509,132.854 600.997,132.854C703.485,132.854 803.877,247.26 900.406,247.26C996.936,247.26 998.371,197.208 1099.67,197.208C1200.96,197.208 1298.68,348.557 1401.17,348.557C1503.66,348.557 1600.12,193.634 1702.61,193.634C1805.1,193.634 1855.15,256.795 1931.42,256.795C2007.69,256.795 2073.07,140.006 2162.45,140.006C2251.82,140.006 2160,0 2160,0L0,0C0,0 -99.737,198.399 -0.823,198.399Z" style="stroke:black;stroke-width:1px;"/>
</svg>
