<?xml version="1.0" encoding="UTF-8" standalone="no"?>
<!DOCTYPE svg PUBLIC "-//W3C//DTD SVG 1.1//EN" "http://www.w3.org/Graphics/SVG/1.1/DTD/svg11.dtd">
<svg width="100%" height="100%" viewBox="0 0 1000 1000" version="1.1" xmlns="http://www.w3.org/2000/svg" xmlns:xlink="http://www.w3.org/1999/xlink" xml:space="preserve" xmlns:serif="http://www.serif.com/" style="fill-rule:evenodd;clip-rule:evenodd;stroke-linejoin:round;stroke-miterlimit:2;">
    <path d="M1000,0L0,0L0,1000L1000,1000L1000,0ZM381.533,113.018C381.533,109.566 382.905,106.254 385.346,103.813C387.787,101.372 391.099,100 394.552,100L605.448,100C608.901,100 612.213,101.372 614.654,103.813C617.095,106.254 618.467,109.566 618.467,113.018L618.467,568.659L772.368,568.659C774.902,568.659 777.207,570.13 778.273,572.429C779.34,574.728 778.975,577.437 777.337,579.373C734.707,629.754 554.396,842.85 509.938,895.39C507.465,898.314 503.83,900 500,900C496.17,900 492.535,898.314 490.062,895.39C445.604,842.85 265.293,629.754 222.663,579.373C221.025,577.437 220.66,574.728 221.727,572.429C222.793,570.13 225.098,568.659 227.632,568.659L381.533,568.659L381.533,113.018Z"/>
</svg>
