<?xml version="1.0" encoding="UTF-8" standalone="no"?>
<!DOCTYPE svg PUBLIC "-//W3C//DTD SVG 1.1//EN" "http://www.w3.org/Graphics/SVG/1.1/DTD/svg11.dtd">
<svg width="100%" height="100%" viewBox="0 0 1000 1000" version="1.1" xmlns="http://www.w3.org/2000/svg" xmlns:xlink="http://www.w3.org/1999/xlink" xml:space="preserve" xmlns:serif="http://www.serif.com/" style="fill-rule:evenodd;clip-rule:evenodd;stroke-linejoin:round;stroke-miterlimit:2;">
    <path d="M1000,0L0,0L0,1000L1000,1000L1000,0ZM278.425,900L126.488,900L126.488,342.898L278.425,342.898L278.425,900ZM886.175,900L734.236,900L734.236,616.183C734.236,445.605 531.653,458.521 531.653,616.183L531.653,900L379.716,900L379.716,342.898L531.653,342.898L531.653,432.288C602.355,301.316 886.175,291.643 886.175,557.687L886.175,900ZM202.455,278.677C153.533,278.677 113.825,238.667 113.825,189.34C113.825,140.011 153.533,100 202.455,100C251.38,100 291.086,140.011 291.086,189.34C291.086,238.667 251.43,278.677 202.455,278.677Z"/>
</svg>
