<?xml version="1.0" encoding="UTF-8" standalone="no"?>
<!DOCTYPE svg PUBLIC "-//W3C//DTD SVG 1.1//EN" "http://www.w3.org/Graphics/SVG/1.1/DTD/svg11.dtd">
<svg width="100%" height="100%" viewBox="0 0 1000 1000" version="1.1" xmlns="http://www.w3.org/2000/svg" xmlns:xlink="http://www.w3.org/1999/xlink" xml:space="preserve" xmlns:serif="http://www.serif.com/" style="fill-rule:evenodd;clip-rule:evenodd;stroke-linejoin:round;stroke-miterlimit:2;">
    <path d="M1000,0L0,0L0,1000L1000,1000L1000,0ZM100,409.393C143.595,446.012 249.797,532.453 346.512,589.577C405.167,624.215 461.236,647.379 500,647.379C538.764,647.379 594.833,624.215 653.488,589.577C750.203,532.453 856.405,446.012 900,409.393L900,673.051C900,713.985 866.769,747.216 825.835,747.216L174.165,747.216C133.231,747.216 100,713.985 100,673.051L100,409.393ZM100,327.613L100,326.949C100,286.015 133.231,252.784 174.165,252.784L825.835,252.784C866.769,252.784 900,286.015 900,326.949L900,327.613L879.634,345.403C879.634,345.403 743.144,464.703 621.995,536.253C574.953,564.039 531.091,585.455 500,585.455C468.909,585.455 425.047,564.039 378.005,536.253C256.856,464.703 120.366,345.403 120.366,345.403L100,327.613Z"/>
</svg>
