<?xml version="1.0" encoding="UTF-8" standalone="no"?>
<!DOCTYPE svg PUBLIC "-//W3C//DTD SVG 1.1//EN" "http://www.w3.org/Graphics/SVG/1.1/DTD/svg11.dtd">
<svg width="100%" height="100%" viewBox="0 0 1000 1000" version="1.1" xmlns="http://www.w3.org/2000/svg" xmlns:xlink="http://www.w3.org/1999/xlink" xml:space="preserve" xmlns:serif="http://www.serif.com/" style="fill-rule:evenodd;clip-rule:evenodd;stroke-linejoin:round;stroke-miterlimit:2;">
    <path d="M1000,0L0,0L0,1000L1000,1000L1000,0ZM368.11,467.901C342.973,433.138 293.419,410.32 247.247,410.32C170.95,410.32 100,457.189 100,585.811L100,801.447C100,816.063 111.855,827.828 126.469,827.828C141.094,827.828 152.949,815.975 152.949,801.447L152.949,585.811C152.922,488.061 200.093,463.177 247.247,463.177C294.399,463.177 341.553,502.373 341.553,568.526L341.553,801.447C341.553,816.063 353.408,827.828 368.022,827.828L368.251,827.828C382.866,827.828 394.722,816.063 394.722,801.447L394.722,568.526C394.722,502.373 441.874,463.177 489.028,463.177C518.964,463.177 583.326,476.473 583.326,568.526L585.115,646.755C585.115,791.304 682.139,827.828 743.882,827.828C805.624,827.828 898.113,785.182 900,657.288L900,452.632C900,417.427 846.902,417.427 846.902,452.632L846.902,657.288C846.902,754.312 774.752,774.978 743.882,774.978C713.012,774.978 638.039,760.434 638.039,646.755L636.275,572.806C636.275,463.165 567.475,405.909 489.028,405.909C442.854,405.909 393.249,433.138 368.11,467.901ZM778.649,336.823C778.649,317.525 763.02,301.895 743.72,301.895C724.423,301.895 708.793,317.525 708.793,336.823C708.793,356.123 724.423,371.752 743.72,371.752C763.02,371.752 778.649,356.123 778.649,336.823ZM632.24,335.347C632.24,282.426 671.217,225.094 738.613,225.094C806.009,225.094 844.854,282.426 844.854,335.347C844.854,375.039 897.9,375.039 897.9,335.347C897.9,242.734 828.06,172.172 738.613,172.172C649.167,172.172 579.346,242.734 579.346,335.347C579.354,375.039 632.24,375.039 632.24,335.347Z"/>
</svg>
